<svg width="63" height="63" viewBox="0 0 63 63" fill="none" xmlns="http://www.w3.org/2000/svg">
<g clip-path="url(#clip0_3461_6799)">
<path d="M24.3365 60.953C19.5486 60.3928 15.0997 58.2008 11.7381 54.7457C8.28306 51.3841 6.09107 46.9353 5.5308 42.1474C5.36902 40.5676 5.43711 38.9727 5.73295 37.4124C2.17202 42.8684 3.58818 51.1816 9.44522 57.0386C15.3023 62.8957 23.5949 64.3075 29.0519 60.7628C28.0733 60.9482 27.0794 61.0412 26.0834 61.0406C25.5098 61.0406 24.9274 61.0114 24.3365 60.953Z" fill="#DA9B29"/>
<path d="M19.6037 32.7337C17.5344 32.6686 15.526 33.4388 14.0309 34.8709C10.4495 38.4535 11.4775 45.3115 16.3238 50.16C21.1701 55.0084 28.0282 56.0365 31.6118 52.4539C35.1954 48.8714 34.1652 42.0122 29.3189 37.1649C26.7788 34.4822 23.2946 32.8931 19.6037 32.7337ZM18.9183 46.4845C18.5438 46.4843 18.196 46.2902 17.9992 45.9716C17.8023 45.653 17.7844 45.2552 17.9518 44.9202L22.276 36.2719C22.5428 35.7376 23.1924 35.5208 23.7267 35.7876C24.2611 36.0545 24.4779 36.704 24.211 37.2384L19.8869 45.8867C19.7036 46.2535 19.3284 46.4851 18.9183 46.4845ZM26.3774 44.8056L24.2153 49.1298C24.0427 49.4754 23.6988 49.7027 23.3131 49.726C22.9274 49.7494 22.5586 49.5652 22.3456 49.2428C22.1325 48.9205 22.1077 48.509 22.2803 48.1633L24.4424 43.8392C24.7092 43.3048 25.3588 43.088 25.8931 43.3549C26.4275 43.6217 26.6443 44.2713 26.3774 44.8056Z" fill="#DA9B29"/>
<path d="M18.9183 46.4845C18.5438 46.4843 18.196 46.2902 17.9992 45.9716C17.8023 45.653 17.7844 45.2552 17.9518 44.9202L22.276 36.2719C22.5428 35.7376 23.1924 35.5208 23.7267 35.7876C24.2611 36.0545 24.4779 36.704 24.211 37.2384L19.8869 45.8867C19.7036 46.2535 19.3284 46.4851 18.9183 46.4845Z" fill="#DA9B29"/>
<path d="M26.3774 44.8056L24.2153 49.1298C24.0427 49.4754 23.6988 49.7027 23.3131 49.726C22.9274 49.7494 22.5586 49.5652 22.3456 49.2428C22.1325 48.9205 22.1077 48.509 22.2803 48.1633L24.4424 43.8392C24.7092 43.3048 25.3588 43.088 25.8931 43.3549C26.4275 43.6217 26.6443 44.2713 26.3774 44.8056Z" fill="#DA9B29"/>
<path d="M9.23766 18.4975C13.0375 22.2963 18.0697 23.6779 20.2296 21.5244C22.3895 19.371 21.0036 14.3312 17.2027 10.5336C15.4592 8.70981 13.2556 7.39065 10.8246 6.71534C10.244 6.5695 9.64819 6.49258 9.04956 6.48616C8.00537 6.4323 6.98344 6.80087 6.214 7.50882C5.2227 8.50013 4.93947 10.139 5.42053 12.1238C6.09629 14.5531 7.41501 16.7551 9.23766 18.4975Z" fill="#DA9B29"/>
<path d="M57.8193 11.5033C57.8426 12.557 57.727 13.6093 57.4755 14.6329C56.4973 18.2026 54.5726 21.4417 51.9049 24.0076C48.0446 27.868 43.4858 29.9587 39.6892 29.9587C39.6006 29.9587 39.5152 29.9511 39.4287 29.949C42.5043 32.3499 48.8251 30.5219 53.6216 25.7264C58.4344 20.9126 60.2559 14.5648 57.8193 11.5033Z" fill="#DA9B29"/>
<path d="M50.3761 22.479C52.7631 20.1944 54.4896 17.3083 55.3737 14.1247C56.017 11.4632 55.6245 9.25035 54.2711 7.89366C53.2253 6.93132 51.8366 6.42961 50.4172 6.50128C47.1914 6.50128 43.0575 8.41147 39.6825 11.7865C37.2956 14.0712 35.5687 16.9572 34.6838 20.1407C34.0352 22.8054 34.433 25.0194 35.7897 26.3761C38.6858 29.27 45.3655 27.4885 50.3761 22.479ZM46.3503 20.878L41.7646 22.4065C41.3977 22.5288 40.9934 22.446 40.7041 22.1894C40.4148 21.9327 40.2844 21.5412 40.362 21.1624C40.4396 20.7835 40.7134 20.4748 41.0803 20.3526L45.6661 18.8229C46.2332 18.634 46.8462 18.9406 47.0352 19.5077C47.2241 20.0749 46.9175 20.689 46.3503 20.878ZM40.316 15.0047L49.4886 11.9465C50.0558 11.7575 50.6688 12.0641 50.8577 12.6313C51.0467 13.1985 50.7401 13.8115 50.1729 14.0004L41.0003 17.0576C40.89 17.0951 40.7742 17.1141 40.6576 17.1138C40.1271 17.1142 39.6747 16.7295 39.5897 16.2058C39.5048 15.6821 39.8125 15.1741 40.316 15.0069V15.0047Z" fill="#DA9B29"/>
<path d="M40.316 15.0047L49.4886 11.9465C50.0558 11.7575 50.6688 12.0641 50.8577 12.6313C51.0467 13.1985 50.7401 13.8115 50.1729 14.0004L41.0003 17.0576C40.89 17.0951 40.7742 17.1141 40.6576 17.1138C40.1271 17.1142 39.6747 16.7295 39.5897 16.2058C39.5048 15.6821 39.8125 15.1741 40.316 15.0069V15.0047Z" fill="#DA9B29"/>
<path d="M46.3503 20.878L41.7646 22.4065C41.3977 22.5288 40.9934 22.446 40.7041 22.1894C40.4148 21.9327 40.2844 21.5412 40.362 21.1624C40.4396 20.7835 40.7134 20.4748 41.0803 20.3526L45.6661 18.8229C46.2332 18.634 46.8462 18.9406 47.0352 19.5077C47.2241 20.0749 46.9175 20.689 46.3503 20.878Z" fill="#DA9B29"/>
</g>
<defs>
<clipPath id="clip0_3461_6799">
<rect width="62.7" height="62.7" fill="white"/>
</clipPath>
</defs>
</svg>
