<svg width="34" height="33" viewBox="0 0 34 33" fill="none" xmlns="http://www.w3.org/2000/svg">
<g id="money 1">
<g id="Page-1">
<g id="018---More-Money">
<path id="Shape" d="M13.3084 32.0806C10.7884 31.7857 8.44691 30.632 6.67764 28.8136C4.8592 27.0443 3.70552 24.7028 3.41064 22.1828C3.32549 21.3514 3.36133 20.5119 3.51703 19.6908C1.64286 22.5623 2.38821 26.9377 5.47086 30.0203C8.55352 33.103 12.9181 33.8461 15.7902 31.9804C15.2751 32.078 14.752 32.127 14.2278 32.1266C13.9259 32.1266 13.6194 32.1113 13.3084 32.0806Z" fill="#DA9B29"/>
<g id="Shape_2">
<path d="M10.8174 17.2283C9.72835 17.194 8.67128 17.5994 7.88441 18.3531C5.99943 20.2387 6.54052 23.8482 9.09119 26.4C11.6419 28.9518 15.2514 29.4929 17.1375 27.6073C19.0236 25.7218 18.4814 22.1117 15.9307 19.5605C14.5938 18.1485 12.7601 17.3121 10.8174 17.2283ZM10.4567 24.4655C10.2596 24.4654 10.0766 24.3633 9.97297 24.1956C9.86937 24.0279 9.85994 23.8185 9.94805 23.6422L12.2239 19.0905C12.3644 18.8093 12.7062 18.6951 12.9875 18.8356C13.2687 18.9761 13.3828 19.3179 13.2424 19.5991L10.9665 24.1509C10.87 24.344 10.6726 24.4658 10.4567 24.4655ZM14.3826 23.5819L13.2446 25.8578C13.1538 26.0397 12.9728 26.1593 12.7698 26.1716C12.5668 26.1839 12.3727 26.0869 12.2605 25.9173C12.1484 25.7476 12.1353 25.531 12.2262 25.3491L13.3641 23.0733C13.5046 22.792 13.8464 22.6779 14.1277 22.8184C14.4089 22.9588 14.523 23.3007 14.3826 23.5819Z" fill="#DA9B29"/>
<path d="M10.4567 24.4655C10.2596 24.4654 10.0766 24.3633 9.97297 24.1956C9.86937 24.0279 9.85994 23.8185 9.94805 23.6422L12.2239 19.0905C12.3644 18.8093 12.7062 18.6951 12.9875 18.8356C13.2687 18.9761 13.3828 19.3179 13.2424 19.5991L10.9665 24.1509C10.87 24.344 10.6726 24.4658 10.4567 24.4655Z" fill="#DA9B29"/>
<path d="M14.3826 23.5819L13.2446 25.8578C13.1538 26.0397 12.9728 26.1593 12.7698 26.1716C12.5668 26.1839 12.3727 26.0869 12.2605 25.9173C12.1484 25.7476 12.1353 25.531 12.2262 25.3491L13.3641 23.0733C13.5046 22.792 13.8464 22.6779 14.1277 22.8184C14.4089 22.9588 14.523 23.3007 14.3826 23.5819Z" fill="#DA9B29"/>
</g>
<path id="Shape_3" d="M5.36141 9.73554C7.36133 11.7349 10.0099 12.462 11.1467 11.3286C12.2834 10.1953 11.554 7.54275 9.55355 5.54397C8.63591 4.5841 7.47613 3.88981 6.19665 3.53438C5.89106 3.45763 5.57748 3.41714 5.26241 3.41376C4.71284 3.38541 4.17498 3.5794 3.77001 3.95201C3.24827 4.47375 3.0992 5.3363 3.35239 6.38092C3.70806 7.65951 4.40212 8.81845 5.36141 9.73554Z" fill="#DA9B29"/>
<path id="Shape_4" d="M30.9307 6.05435C30.943 6.60897 30.8821 7.16278 30.7498 7.70151C30.2349 9.58032 29.2219 11.2851 27.8179 12.6356C25.7861 14.6674 23.3868 15.7677 21.3886 15.7677C21.3419 15.7677 21.297 15.7637 21.2515 15.7626C22.8702 17.0263 26.1969 16.0642 28.7214 13.5402C31.2544 11.0066 32.2132 7.66566 30.9307 6.05435Z" fill="#DA9B29"/>
<g id="Shape_5">
<path d="M27.0134 11.831C28.2697 10.6286 29.1784 9.10963 29.6438 7.43408C29.9823 6.03328 29.7758 4.86861 29.0634 4.15456C28.513 3.64807 27.7821 3.38401 27.0351 3.42173C25.3373 3.42173 23.1615 4.4271 21.3852 6.20341C20.1289 7.4059 19.2201 8.92486 18.7543 10.6004C18.413 12.0029 18.6223 13.1681 19.3364 13.8822C20.8606 15.4053 24.3763 14.4676 27.0134 11.831ZM24.8946 10.9884L22.4811 11.7929C22.288 11.8573 22.0752 11.8137 21.9229 11.6786C21.7707 11.5435 21.702 11.3375 21.7428 11.1381C21.7837 10.9387 21.9278 10.7762 22.1209 10.7119L24.5345 9.9068C24.833 9.80735 25.1556 9.96872 25.2551 10.2672C25.3545 10.5658 25.1931 10.889 24.8946 10.9884ZM21.7186 7.89722L26.5463 6.28761C26.8448 6.18816 27.1675 6.34953 27.2669 6.64805C27.3664 6.94657 27.205 7.26919 26.9065 7.36865L22.0788 8.97768C22.0207 8.99741 21.9598 9.0074 21.8984 9.00727C21.6192 9.00747 21.3811 8.805 21.3364 8.52936C21.2917 8.25372 21.4536 7.98639 21.7186 7.89835V7.89722Z" fill="#DA9B29"/>
<path d="M21.7186 7.89722L26.5463 6.28761C26.8448 6.18816 27.1675 6.34953 27.2669 6.64805C27.3664 6.94657 27.205 7.26919 26.9065 7.36865L22.0788 8.97768C22.0207 8.99741 21.9598 9.0074 21.8984 9.00727C21.6192 9.00747 21.3811 8.805 21.3364 8.52936C21.2917 8.25372 21.4536 7.98639 21.7186 7.89835V7.89722Z" fill="#DA9B29"/>
<path d="M24.8946 10.9884L22.4811 11.7929C22.288 11.8573 22.0752 11.8137 21.9229 11.6786C21.7707 11.5435 21.702 11.3375 21.7428 11.1381C21.7837 10.9387 21.9278 10.7762 22.1209 10.7119L24.5345 9.9068C24.833 9.80735 25.1556 9.96872 25.2551 10.2672C25.3545 10.5658 25.1931 10.889 24.8946 10.9884Z" fill="#DA9B29"/>
</g>
</g>
</g>
</g>
</svg>
