<?xml version="1.0" encoding="utf-8"?><svg xmlns="http://www.w3.org/2000/svg" xmlns:xlink="http://www.w3.org/1999/xlink"><symbol fill="none" viewBox="0 0 16 18" id="info" xmlns="http://www.w3.org/2000/svg"><rect x=".584" y="1.198" width="15.016" height="15.603" rx="2.802" stroke="#DA9B29" stroke-width=".8"/><path d="M8.337 6.006a.678.678 0 0 1-.5-.201.678.678 0 0 1-.202-.5c0-.198.068-.365.202-.5a.678.678 0 0 1 .5-.201c.192 0 .355.067.49.202a.678.678 0 0 1 .201.499.678.678 0 0 1-.201.5.667.667 0 0 1-.49.201Zm.538.701V12H7.78V6.707h1.095Z" fill="#DA9B29"/></symbol><symbol fill="none" viewBox="0 0 16 16" id="telegram" xmlns="http://www.w3.org/2000/svg"><path d="m14.629 3.698-2.012 9.618c-.152.679-.548.848-1.11.528l-3.066-2.29-1.48 1.442c-.163.166-.3.305-.616.305l.22-3.165 5.683-5.204c.247-.223-.054-.347-.384-.123L4.839 9.29l-3.024-.959c-.658-.208-.67-.667.137-.986L13.78 2.727c.548-.208 1.027.124.849.971Z" fill="#000"/></symbol></svg>