<svg width="16" height="18" viewBox="0 0 16 18" fill="none" xmlns="http://www.w3.org/2000/svg">
<rect x="0.583823" y="1.19846" width="15.0162" height="15.6032" rx="2.80161" stroke="#DA9B29" stroke-width="0.800459"/>
<path d="M8.33663 6.00624C8.13811 6.00624 7.97162 5.939 7.83714 5.80452C7.70266 5.67004 7.63542 5.50355 7.63542 5.30503C7.63542 5.10652 7.70266 4.94002 7.83714 4.80555C7.97162 4.67107 8.13811 4.60383 8.33663 4.60383C8.52874 4.60383 8.69203 4.67107 8.82651 4.80555C8.96098 4.94002 9.02822 5.10652 9.02822 5.30503C9.02822 5.50355 8.96098 5.67004 8.82651 5.80452C8.69203 5.939 8.52874 6.00624 8.33663 6.00624ZM8.87454 6.70744V12.0001H7.77951V6.70744H8.87454Z" fill="#DA9B29"/>
</svg>
