<svg width="20" height="20" viewBox="0 0 20 20" fill="none" xmlns="http://www.w3.org/2000/svg">
<g id="bar-chart-big">
<path id="Vector" d="M2.5 2.5V17.5H17.5" stroke="#DA9B29" stroke-width="2" stroke-linecap="round" stroke-linejoin="round"/>
<path id="Vector_2" d="M8.3335 8.33331H6.66683C6.20659 8.33331 5.8335 8.70641 5.8335 9.16665V13.3333C5.8335 13.7936 6.20659 14.1666 6.66683 14.1666H8.3335C8.79373 14.1666 9.16683 13.7936 9.16683 13.3333V9.16665C9.16683 8.70641 8.79373 8.33331 8.3335 8.33331Z" stroke="#DA9B29" stroke-width="2" stroke-linecap="round" stroke-linejoin="round"/>
<path id="Vector_3" d="M15 4.16669H13.3333C12.8731 4.16669 12.5 4.53978 12.5 5.00002V13.3334C12.5 13.7936 12.8731 14.1667 13.3333 14.1667H15C15.4602 14.1667 15.8333 13.7936 15.8333 13.3334V5.00002C15.8333 4.53978 15.4602 4.16669 15 4.16669Z" stroke="#DA9B29" stroke-width="2" stroke-linecap="round" stroke-linejoin="round"/>
</g>
</svg>
