<svg width="20" height="20" viewBox="0 0 20 20" fill="none" xmlns="http://www.w3.org/2000/svg">
<g id="briefcase">
<path id="Vector" d="M16.6665 5.83331H3.33317C2.4127 5.83331 1.6665 6.57951 1.6665 7.49998V15.8333C1.6665 16.7538 2.4127 17.5 3.33317 17.5H16.6665C17.587 17.5 18.3332 16.7538 18.3332 15.8333V7.49998C18.3332 6.57951 17.587 5.83331 16.6665 5.83331Z" stroke="#DA9B29" stroke-width="2" stroke-linecap="round" stroke-linejoin="round"/>
<path id="Vector_2" d="M13.3332 5.83333V3.83333C13.3332 3.47971 13.1576 3.14057 12.845 2.89052C12.5325 2.64048 12.1085 2.5 11.6665 2.5H8.33317C7.89114 2.5 7.46722 2.64048 7.15466 2.89052C6.8421 3.14057 6.6665 3.47971 6.6665 3.83333V5.83333" stroke="#DA9B29" stroke-width="2" stroke-linecap="round" stroke-linejoin="round"/>
</g>
</svg>
