<svg width="16" height="17" viewBox="0 0 16 17" fill="none" xmlns="http://www.w3.org/2000/svg">
  <rect x="0.582847" y="0.40023" width="15.0162" height="15.6032" rx="2.80161" stroke="#DA9B29" stroke-width="0.800459"/>
  <path d="M8.33565 5.20806C8.13714 5.20806 7.97064 5.14083 7.83616 5.00635C7.70169 4.87187 7.63445 4.70538 7.63445 4.50686C7.63445 4.30835 7.70169 4.14185 7.83616 4.00738C7.97064 3.8729 8.13714 3.80566 8.33565 3.80566C8.52776 3.80566 8.69105 3.8729 8.82553 4.00738C8.96001 4.14185 9.02725 4.30835 9.02725 4.50686C9.02725 4.70538 8.96001 4.87187 8.82553 5.00635C8.69105 5.14083 8.52776 5.20806 8.33565 5.20806ZM8.87356 5.90927V11.2019H7.77853V5.90927H8.87356Z" fill="#DA9B29"/>
</svg>
