<svg width="20" height="20" viewBox="0 0 20 20" fill="none" xmlns="http://www.w3.org/2000/svg">
<g id="pencil" clip-path="url(#clip0_3461_5509)">
<path id="Vector" d="M14.1665 2.5C14.3787 2.2492 14.6413 2.04505 14.9373 1.90057C15.2334 1.75609 15.5566 1.67445 15.8862 1.66085C16.2158 1.64725 16.5447 1.70198 16.8518 1.82157C17.159 1.94116 17.4376 2.12298 17.6701 2.35544C17.9025 2.58789 18.0837 2.86589 18.202 3.1717C18.3202 3.47752 18.373 3.80445 18.357 4.13165C18.341 4.45885 18.2565 4.77916 18.1089 5.07214C17.9613 5.36512 17.7539 5.62436 17.4998 5.83333L6.24984 17.0833L1.6665 18.3333L2.9165 13.75L14.1665 2.5Z" stroke="#DA9B29" stroke-width="2" stroke-linecap="round" stroke-linejoin="round"/>
<path id="Vector_2" d="M12.5 4.16667L15.8333 7.50001" stroke="#DA9B29" stroke-width="2" stroke-linecap="round" stroke-linejoin="round"/>
</g>
<defs>
<clipPath id="clip0_3461_5509">
<rect width="20" height="20" fill="white"/>
</clipPath>
</defs>
</svg>
